<?xml version="1.0" encoding="UTF-8" standalone="no"?>
<svg
   xmlns:dc="http://purl.org/dc/elements/1.1/"
   xmlns:cc="http://creativecommons.org/ns#"
   xmlns:rdf="http://www.w3.org/1999/02/22-rdf-syntax-ns#"
   xmlns:svg="http://www.w3.org/2000/svg"
   xmlns="http://www.w3.org/2000/svg"
   xmlns:sodipodi="http://sodipodi.sourceforge.net/DTD/sodipodi-0.dtd"
   xmlns:inkscape="http://www.inkscape.org/namespaces/inkscape"
   width="128"
   height="128"
   viewBox="0 0 33.866666 33.866666"
   version="1.1"
   id="svg8"
   sodipodi:docname="reset.svg"
   inkscape:version="1.0.1 (0767f8302a, 2020-10-17)">
  <defs
     id="defs2" />
  <sodipodi:namedview
     id="base"
     pagecolor="#ffffff"
     bordercolor="#666666"
     borderopacity="1.0"
     inkscape:pageopacity="0.0"
     inkscape:pageshadow="2"
     inkscape:zoom="1.979899"
     inkscape:cx="-46.941427"
     inkscape:cy="12.447096"
     inkscape:document-units="px"
     inkscape:current-layer="layer1"
     inkscape:document-rotation="0"
     showgrid="true"
     units="px"
     inkscape:window-width="1916"
     inkscape:window-height="1044"
     inkscape:window-x="1920"
     inkscape:window-y="16"
     inkscape:window-maximized="0">
    <inkscape:grid
       type="xygrid"
       id="grid14"
       originx="16.933333"
       originy="16.933333" />
  </sodipodi:namedview>
  <metadata
     id="metadata5">
    <rdf:RDF>
      <cc:Work
         rdf:about="">
        <dc:format>image/svg+xml</dc:format>
        <dc:type
           rdf:resource="http://purl.org/dc/dcmitype/StillImage" />
        <dc:title></dc:title>
      </cc:Work>
    </rdf:RDF>
  </metadata>
  <g
     inkscape:label="Layer 1"
     inkscape:groupmode="layer"
     id="layer1">
    <path
       id="path16-3"
       style="fill:#333333;fill-rule:evenodd;stroke-width:0.999999;fill-opacity:1"
       d="M 64 9.2558594 A 55 55 0 0 0 9.4394531 64.253906 A 55 55 0 0 0 64.439453 119.25391 A 55 55 0 0 0 119.43945 64.253906 A 55 55 0 0 0 102.98242 25.017578 L 93.740234 34.259766 A 41.931028 41.931028 0 0 1 106.37109 64.253906 A 41.931028 41.931028 0 0 1 64.439453 106.18555 A 41.931028 41.931028 0 0 1 22.507812 64.253906 A 41.931028 41.931028 0 0 1 64 22.328125 L 64 9.2558594 z "
       transform="scale(0.26458333)" />
    <path
       style="fill:#33333f;stroke:#333333;stroke-width:0.264583px;stroke-linecap:butt;stroke-linejoin:miter;stroke-opacity:1;fill-opacity:1"
       d="M 16.933333,1.0583333 V 7.6729166 L 22.198669,4.3661503 Z"
       id="path916"
       sodipodi:nodetypes="cccc" />
    <path
       style="fill:none;fill-opacity:1;fill-rule:nonzero;stroke-width:0.0446429"
       d="M 64.533166,16.501236 V 4.9573292 l 1.640625,1.0303347 C 81.966238,15.905534 82.885045,16.48777 82.827976,16.541196 c -0.03201,0.02997 -4.116238,2.601379 -9.07606,5.714248 -4.959821,3.112869 -9.063058,5.688997 -9.118303,5.72473 l -0.100447,0.06497 z"
       id="path918"
       transform="scale(0.26458333)" />
  </g>
</svg>
